<svg xmlns="http://www.w3.org/2000/svg" width="30" height="30">
  <path fill="#f08a00" d="M25.67 16.635c-1.473 0-2.776.74-3.558 1.868l-1.127-.482v-.7l3.53-1.46.906-2.09h.42l2.09 2.48c.08.1.2.15.31.15.1 0 .19-.03.27-.09.18-.14.2-.4.05-.57l-1.64-1.95h.26c.23 0 .41-.184.41-.41 0-.223-.18-.406-.4-.406h-.61l.537-.254c.25-.12.36-.42.24-.677l-.307-.66c-.08-.18-.26-.295-.457-.297l-5.654-.05h-.007c-.14 0-.277.06-.374.163-.01.01-1.166 1.202-3.296 1.48-.14-.26-.364-.624-.702-.986-.82-.88-1.896-1.343-3.11-1.343-.25 0-.505.02-.76.057h-.007c-.06.01-1.48.23-3.45.785h-.09c-.23 0-.777-.04-.99-.41-.016-.03-.03-.06-.044-.098l.94-.17c.26-.043.435-.3.39-.56-.05-.26-.3-.44-.565-.39l-.77.14c.116-.48.38-1.134.9-2.027.11-.185.09-.42-.05-.585-.1-.116-.24-.18-.39-.18-.06 0-.12.01-.18.03-.053.024-1.394.54-2.61 1.81-.78.813-1.603 2.05-1.863 3.786.07-.133.16-.264.267-.385 0 0 1.39.9.605 2.22h-.92c.02.26.05.54.1.82.02.11.07.21.16.29l1.14 1.04c-3.75-.51-5.1 1.91-5.1 1.91-.28.37-.14.77.31.56-.3.59-.477 1.26-.477 1.97 0 2.39 1.94 4.33 4.33 4.33 2.384 0 4.33-1.94 4.33-4.33 0-.18-.016-.35-.037-.52h5.29l-2.086-1.55s-2.478.24-4.246-1.68c.186-.01.388-.01.6-.01 1.436 0 3.43.26 4.797 1.49.018.012.037.03.056.04l4.684 3.16c.086.06.185.09.284.09.13 0 .26-.05.36-.15l1.887-1.887 1.127.48c-.03.184-.04.37-.04.56 0 2.387 1.94 4.33 4.33 4.33 2.38 0 4.33-1.943 4.33-4.33 0-2.39-1.95-4.33-4.33-4.33zm-4.685-1.05l3.19-1.513-.43.994-2.76 1.145v-.62zM4.33 23.255c-1.264 0-2.293-1.027-2.293-2.29 0-1.265 1.03-2.293 2.292-2.293.05 0 .1.002.15.006l-.95 1.955 1.83.89.87-1.808c.23.36.37.79.37 1.25 0 1.263-1.03 2.29-2.29 2.29zm21.34 0c-1.16 0-2.12-.864-2.27-1.984l1.734.75.802-1.87-1.878-.8c.415-.41.985-.66 1.613-.66 1.27 0 2.3 1.03 2.3 2.29 0 1.27-1.03 2.29-2.29 2.29z"/>
</svg>
