<svg xmlns="http://www.w3.org/2000/svg" width="30" height="30">
  <path fill="#f08a00" d="M5.643 19.458c-1.292 0-2.345 1.052-2.345 2.345 0 1.293 1.052 2.344 2.345 2.344 1.293 0 2.344-1.05 2.344-2.344 0-1.292-1.05-2.345-2.344-2.345zm0 3.818c-.812 0-1.473-.66-1.473-1.473 0-.812.66-1.473 1.473-1.473.812 0 1.473.66 1.473 1.473 0 .812-.66 1.473-1.473 1.473zm18.8-3.818c-1.29 0-2.343 1.052-2.343 2.345 0 1.293 1.05 2.344 2.344 2.344 1.293 0 2.345-1.05 2.345-2.344-.01-1.292-1.06-2.345-2.35-2.345zm0 3.818c-.81 0-1.472-.66-1.472-1.473 0-.812.66-1.473 1.48-1.473.81 0 1.477.66 1.477 1.473 0 .812-.66 1.473-1.473 1.473zm4.686-4.543H30v-7.76c0-1.376-1.115-2.49-2.49-2.49H2.49C1.113 8.483 0 9.597 0 10.973v8.796c0 1.37 1.114 2.49 2.49 2.49h.648c-.015-.12-.026-.24-.026-.36 0-1.447 1.17-2.618 2.614-2.618S8.34 20.452 8.34 21.9c0 .12-.01.238-.026.354h13.62c-.015-.117-.025-.234-.025-.354 0-1.442 1.17-2.613 2.61-2.613s2.61 1.17 2.61 2.613c0 .12-.01.237-.03.353H30V21.22h-.87c-.138 0-.25-.112-.25-.25v-1.99c0-.14.11-.25.25-.25zM16.59 9.77v5.974h-4.56V9.77h4.565zM4.85 15.744h-.91c-2.094 0-2.052-1.244-2.052-1.38V10.02c0-.14.11-.25.25-.25H6.97v5.973H4.854zm2.364 0V9.77h4.562v5.974H7.22zm14.645 0h-5.02V9.77h5.02v5.974zm2.22-.25c0 .14-.11.25-.25.25H22.1V9.77h1.738c.137 0 .248.11.248.25v5.475zm4.46 1.62s-1.12.1-2.336-.178-1.38-1.378-1.38-1.378V9.75h2.433c.71 0 1.282.573 1.282 1.28v6.084z"/>
</svg>
