<svg xmlns="http://www.w3.org/2000/svg" width="30" height="30">
  <path fill="#f08a00" d="M28.89 14.44c-.552-.185-4.382-1.022-4.382-1.022s-7.1-4.038-7.954-4.038l-6.698.002c-1.428 0-2.62 1.09-4.004 2.35-.65.592-1.37 1.246-2.163 1.827l-2.96.39c-.42.14-.73.532-.73 1.01v3.38c0 .585.47 1.06 1.054 1.06h2.03c.147 1.7 1.576 3.034 3.312 3.034 1.73 0 3.16-1.337 3.31-3.036h9.69c.144 1.7 1.573 3.034 3.31 3.034s3.164-1.336 3.31-3.036h1.668c1.32 0 1.967-.57 2.13-1.107.41-1.355.115-3.505-.933-3.855zM6.4 20.832c-.95 0-1.724-.773-1.724-1.723 0-.95.773-1.73 1.723-1.73.95 0 1.72.772 1.72 1.722S7.35 20.83 6.4 20.83zm6.394-7.415H7.016c.418-.33.805-.68 1.16-1.005.936-.854 1.744-1.59 2.71-1.59h1.91v2.595zm1.408-2.597h1.672c.796 0 4.026 1.877 5.238 2.598h-6.91V10.82zm8.512 10.013c-.95 0-1.723-.773-1.723-1.723 0-.95.78-1.722 1.73-1.722s1.725.772 1.725 1.722-.773 1.723-1.723 1.723z"/>
</svg>
