<svg xmlns="http://www.w3.org/2000/svg" viewBox="0 0 30 30">
  <g fill="#f08a00" transform="translate(0 .56) scale(1.26797)">
    <circle cx="8.164" cy="17.386" r="2.432"/>
    <path d="M22.95 14.458h-5.67c.174-2.073.1-5.805-1.773-8.264-1.19-1.56-2.99-2.353-5.347-2.353H1.563C.7 3.84 0 4.546 0 5.407v9.866c0 .863.7 1.565 1.563 1.565h3.29c.183-1.635 1.572-2.91 3.255-2.91 1.683 0 3.072 1.275 3.255 2.91h1.71l.317.018c.467.03 1.248.077 1.84.077.434 0 1.705 0 1.85-1.064h5.87s1.597-.658 0-1.408zm-15.073-3.35c0 .217-.175.392-.39.392H2.464c-.216 0-.39-.175-.39-.39V6.087c0-.216.174-.39.39-.39h5.02c.217 0 .392.174.392.39v5.02zm6.945.392h-5.02c-.216 0-.39-.175-.39-.39V6.087c0-.216.39-.39.39-.39s5.41.154 5.41 5.41c0 0-.174.392-.39.392z"/>
  </g>
</svg>
