<?xml version="1.0"?>
<!--Icons from directory ""-->
<svg xmlns="http://www.w3.org/2000/svg" width="64" height="640" viewBox="0 0 64 640"><svg id="level-01" viewBox="0 0 186.8 98.4" width="64" height="64" y="0"><style>.st0{fill-rule:evenodd;clip-rule:evenodd;fill:#EAEAEA;} .st1{fill-rule:evenodd;clip-rule:evenodd;fill:#FFC915;} .st2{fill-rule:evenodd;clip-rule:evenodd;fill:#3F3E40;} .st3{fill-rule:evenodd;clip-rule:evenodd;fill:#F55C4D;} .st4{fill-rule:evenodd;clip-rule:evenodd;fill:#6EB232;}</style><path d="m186.8 93.4c0-51.6-41.8-93.4-93.4-93.4s-93.4 41.8-93.4 93.4h40.6c0-29.2 23.6-52.8 52.8-52.8s52.8 23.6 52.8 52.8h40.6z" class="st0"/><path d="m100.4 91.5c0.1 3.7-2.9 6.8-6.7 6.9l-90-5.3 89.8-8.3c3.8-0.1 6.9 2.9 6.9 6.7z" class="st2"/></svg><svg id="level-02" viewBox="0 0 186.8 95.7" width="64" height="64" y="64"><style>.st0{fill-rule:evenodd;clip-rule:evenodd;fill:#EAEAEA;} .st1{fill-rule:evenodd;clip-rule:evenodd;fill:#FFC915;} .st2{fill-rule:evenodd;clip-rule:evenodd;fill:#3F3E40;} .st3{fill-rule:evenodd;clip-rule:evenodd;fill:#F55C4D;} .st4{fill-rule:evenodd;clip-rule:evenodd;fill:#6EB232;}</style><path d="m186.8 93.4c0-51.6-41.8-93.4-93.4-93.4s-93.4 41.8-93.4 93.4h40.6c0-29.2 23.6-52.8 52.8-52.8s52.8 23.6 52.8 52.8h40.6z" class="st0"/><path d="m40.6 93.4c0.3-17.7 6.6-25.5 6.6-25.5s-11.2-2.7-39-12.5c-4.2 8.3-7.7 18.3-8.2 38h40.6z" class="st3"/><path d="m98.3 91.4c-1.4 3.5-5.3 5.1-8.8 3.8l-81-39.6 86 27.1c3.5 1.3 5.2 5.2 3.8 8.7z" class="st2"/></svg><svg id="level-03" viewBox="0 0 186.8 95" width="64" height="64" y="128"><style>.st0{fill-rule:evenodd;clip-rule:evenodd;fill:#EAEAEA;} .st1{fill-rule:evenodd;clip-rule:evenodd;fill:#FFC915;} .st2{fill-rule:evenodd;clip-rule:evenodd;fill:#3F3E40;} .st3{fill-rule:evenodd;clip-rule:evenodd;fill:#F55C4D;} .st4{fill-rule:evenodd;clip-rule:evenodd;fill:#6EB232;}</style><path d="m186.8 93.4c0-51.6-41.8-93.4-93.4-93.4s-93.4 41.8-93.4 93.4h40.6c0-29.2 23.6-52.8 52.8-52.8s52.8 23.6 52.8 52.8h40.6z" class="st0"/><path d="m40.6 93.4c0-14.4 15.1-36.9 15.1-36.9s-11.5-8.6-30.6-26.8c-15.6 16.7-25.1 39.1-25.1 63.7h40.6z" class="st3"/><path d="m98.9 92.7c-2.4 2.9-6.7 3.2-9.6 0.7l-64-63.5 72.8 53.2c3 2.4 3.3 6.7 0.8 9.6z" class="st2"/></svg><svg id="level-04" viewBox="0 0 186.8 93.8" width="64" height="64" y="192"><style>.st0{fill-rule:evenodd;clip-rule:evenodd;fill:#EAEAEA;} .st1{fill-rule:evenodd;clip-rule:evenodd;fill:#FFC915;} .st2{fill-rule:evenodd;clip-rule:evenodd;fill:#3F3E40;} .st3{fill-rule:evenodd;clip-rule:evenodd;fill:#F55C4D;} .st4{fill-rule:evenodd;clip-rule:evenodd;fill:#6EB232;}</style><path d="m186.8 93.4c0-51.6-41.8-93.4-93.4-93.4s-93.4 41.8-93.4 93.4h40.6c0-29.2 23.6-52.8 52.8-52.8s52.8 23.6 52.8 52.8h40.6z" class="st0"/><path d="m40.6 93.4c1.4-27.4 16-39.4 27.7-46.3-0.6-4-18.6-26.5-23-33.8-24 12.6-45.7 44.3-45.3 80.1h40.6z" class="st1"/><path d="m98.3 92.6c-3.1 2.1-7.3 1.2-9.4-1.9l-44.1-77.8 55.5 70.3c2 3.1 1.2 7.3-2 9.4z" class="st2"/></svg><svg id="level-05" viewBox="0 0 186.8 95.7" width="64" height="64" y="256"><style>.st0{fill-rule:evenodd;clip-rule:evenodd;fill:#EAEAEA;} .st1{fill-rule:evenodd;clip-rule:evenodd;fill:#FFC915;} .st2{fill-rule:evenodd;clip-rule:evenodd;fill:#3F3E40;} .st3{fill-rule:evenodd;clip-rule:evenodd;fill:#F55C4D;} .st4{fill-rule:evenodd;clip-rule:evenodd;fill:#6EB232;}</style><path d="m186.8 93.4c0-51.6-41.8-93.4-93.4-93.4s-93.4 41.8-93.4 93.4h40.6c0-29.2 23.6-52.8 52.8-52.8s52.8 23.6 52.8 52.8h40.6z" class="st0"/><path d="m40.6 93.4c0-26.9 20.1-49.1 46-52.4-0.6-4-5.5-34.6-6.4-40.1-45.3 6.4-80.2 45.4-80.2 92.5h40.6z" class="st1"/><path d="m96.7 95.6c-3.7 0.7-7.2-1.9-7.8-5.5l-8.7-89.1 22 86.8c0.7 3.7-1.8 7.2-5.5 7.8z" class="st2"/></svg><svg id="level-06" viewBox="0 0 187 95.8" width="64" height="64" y="320"><style>.st0{fill-rule:evenodd;clip-rule:evenodd;fill:#EAEAEA;} .st1{fill-rule:evenodd;clip-rule:evenodd;fill:#FFC915;} .st2{fill-rule:evenodd;clip-rule:evenodd;fill:#3F3E40;} .st3{fill-rule:evenodd;clip-rule:evenodd;fill:#F55C4D;} .st4{fill-rule:evenodd;clip-rule:evenodd;fill:#6EB232;}</style><path d="m0.1 93.5c0-51.7 41.9-93.5 93.4-93.5 51.6 0 93.5 41.8 93.5 93.5h-40.6c0-29.2-23.6-52.8-52.8-52.8s-52.9 23.6-52.9 52.8h-40.6z" class="st0"/><path d="m40.6 93.7c0-26.9 21.7-53.9 56-52.7 1.9-3.4 9-33.6 10.3-39.9-65.1-9.3-107.2 43.6-106.9 92.6h40.6z" class="st1"/><path d="m90.3 95.6c3.7 0.7 7.2-1.9 7.8-5.5l8.6-89.1-22 86.8c-0.6 3.7 1.8 7.2 5.6 7.8z" class="st2"/></svg><svg id="level-07" viewBox="0 0 186.8 94" width="64" height="64" y="384"><style>.st0{fill-rule:evenodd;clip-rule:evenodd;fill:#EAEAEA;} .st1{fill-rule:evenodd;clip-rule:evenodd;fill:#FFC915;} .st2{fill-rule:evenodd;clip-rule:evenodd;fill:#3F3E40;} .st3{fill-rule:evenodd;clip-rule:evenodd;fill:#F55C4D;} .st4{fill-rule:evenodd;clip-rule:evenodd;fill:#6EB232;}</style><path d="m0 93.6c0-51.6 41.8-93.4 93.4-93.4s93.4 41.8 93.4 93.4h-40.6c0-29.2-23.6-52.8-52.8-52.8s-52.8 23.7-52.8 52.8h-40.6z" class="st0"/><path d="m88.5 92.9c3.1 2.1 7.3 1.2 9.4-1.9l44.2-77.9-55.5 70.4c-2.1 3.1-1.2 7.3 1.9 9.4z" class="st2"/><path d="m40.7 93.7c-1.1-29.1 31.7-66.6 75.8-47.6 1.9-3.4 22.4-26.7 25.3-32.5-71.2-40.8-144 17.5-141.8 80.1h40.7z" class="st1"/></svg><svg id="level-08" viewBox="0 0 186.8 94.6" width="64" height="64" y="448"><style>.st0{fill-rule:evenodd;clip-rule:evenodd;fill:#EAEAEA;} .st1{fill-rule:evenodd;clip-rule:evenodd;fill:#FFC915;} .st2{fill-rule:evenodd;clip-rule:evenodd;fill:#3F3E40;} .st3{fill-rule:evenodd;clip-rule:evenodd;fill:#F55C4D;} .st4{fill-rule:evenodd;clip-rule:evenodd;fill:#6EB232;}</style><path d="m186.8 93.4c0-51.6-41.8-93.4-93.4-93.4s-93.4 41.8-93.4 93.4h40.6c0-29.2 23.6-52.8 52.8-52.8s52.8 23.6 52.8 52.8h40.6z" class="st0"/><path d="m40.6 93.4c0-29.2 23.6-52.8 52.8-52.8 2.5 0 23.9 0.5 37.4 15.7l30.9-26.7c-28.1-29.3-60.9-29.6-68.3-29.6-51.6 0-93.4 41.8-93.4 93.4h40.6z" class="st4"/><path d="m88.2 92.3c2.4 2.9 6.7 3.2 9.6 0.7l64-63.5-72.9 53.2c-2.8 2.4-3.1 6.7-0.7 9.6z" class="st2"/></svg><svg id="level-09" viewBox="0 0 186.8 94.9" width="64" height="64" y="512"><style>.st0{fill-rule:evenodd;clip-rule:evenodd;fill:#EAEAEA;} .st1{fill-rule:evenodd;clip-rule:evenodd;fill:#FFC915;} .st2{fill-rule:evenodd;clip-rule:evenodd;fill:#3F3E40;} .st3{fill-rule:evenodd;clip-rule:evenodd;fill:#F55C4D;} .st4{fill-rule:evenodd;clip-rule:evenodd;fill:#6EB232;}</style><path d="m186.8 93.4c0-51.6-41.8-93.4-93.4-93.4s-93.4 41.8-93.4 93.4h40.6c0-29.2 23.6-52.8 52.8-52.8s52.8 23.6 52.8 52.8h40.6z" class="st0"/><path d="m40.6 93.4c0-29.2 23.6-52.8 52.8-52.8 2.5 0 34.7-0.4 49.7 34l38.3-12.3c-23.1-60.9-80.6-62.3-88-62.3-51.6 0-93.4 41.8-93.4 93.4h40.6z" class="st4"/><path d="m89 90c-1.1-3.6 1-7.3 4.6-8.4l88-19.3-84.2 32.3c-3.6 1.1-7.3-1-8.4-4.6z" class="st2"/></svg><svg id="level-10" viewBox="0 0 187 98.6" width="64" height="64" y="576"><style>.st0{fill-rule:evenodd;clip-rule:evenodd;fill:#EAEAEA;} .st1{fill-rule:evenodd;clip-rule:evenodd;fill:#FFC915;} .st2{fill-rule:evenodd;clip-rule:evenodd;fill:#3F3E40;} .st3{fill-rule:evenodd;clip-rule:evenodd;fill:#F55C4D;} .st4{fill-rule:evenodd;clip-rule:evenodd;fill:#6EB232;}</style><path d="m186.9 93.4c0-51.6-41.9-93.4-93.4-93.4-51.6 0-93.5 41.8-93.5 93.4h40.6c0-29.2 23.6-52.8 52.8-52.8s52.8 23.6 52.8 52.8h40.7z" class="st0"/><path d="m181.7 62.3c-11.1-29.1-30-44.6-47.5-52.9-11.8-5.7-24.9-9-38.7-9.4h-4.2c-13.8 0.4-26.9 3.7-38.6 9.4-17.5 8.3-36.4 23.8-47.5 52.9-3.5 9.7-5.2 20.3-5.2 31.2l40.8-0.1c0-23.5 15.4-43.4 36.6-50.3 0.3-0.1 0.7-0.2 1-0.3 0.2-0.1 0.4-0.1 0.6-0.2 2.6-0.7 5-1.2 7.1-1.5 2.4-0.3 4.8-0.5 7.3-0.5s4.9 0.2 7.3 0.5c2.1 0.3 4.4 0.8 7 1.5 0.2 0.1 0.4 0.1 0.6 0.2 0.3 0.1 0.7 0.2 1 0.3 21.3 6.8 36.6 26.7 36.6 50.3h40.8c0.2-10.9-1.6-21.4-5-31.1z" class="st4"/><path d="m90.3 91.7c-0.1 3.7 2.9 6.8 6.7 6.9l90-5.3-89.8-8.3c-3.8 0-6.8 3-6.9 6.7z" class="st2"/></svg></svg>
