<svg xmlns="http://www.w3.org/2000/svg" width="30" height="30">
  <path fill="#f08a00" d="M2.338 19.373H19.92v2.432H7.13c-.382-1.047-1.388-1.8-2.566-1.8-1.16 0-2.154.73-2.548 1.754-.486-.14-.842-.59-.842-1.12v-.104c0-.644.52-1.165 1.164-1.165zm4.167 3.092c0 1.12-.912 2.03-2.032 2.03s-2.03-.91-2.03-2.03c0-1.12.91-2.032 2.03-2.032 1.12 0 2.032.912 2.032 2.032zm-.622 0c0-.778-.632-1.41-1.41-1.41-.778 0-1.41.632-1.41 1.41 0 .777.633 1.41 1.41 1.41.778 0 1.41-.632 1.41-1.41zm21.154 0c0 1.12-.91 2.03-2.03 2.03-1.12 0-2.033-.91-2.033-2.03 0-1.12.912-2.032 2.032-2.032s2.03.912 2.03 2.032zm-.62 0c0-.778-.634-1.41-1.41-1.41-.778 0-1.41.632-1.41 1.41 0 .777.632 1.41 1.41 1.41.776 0 1.41-.632 1.41-1.41zM30 16.63v4.593c0 .214-.174.388-.388.388h-2.03c-.43-.942-1.38-1.602-2.486-1.602-1.104 0-2.056.66-2.486 1.605h-1.37c-.214 0-.388-.173-.388-.387V12c0-.214.174-.388.39-.388h5.11c.214 0 .54.072.776.388L30 16.63zm-1.81-1.01l-1.748-2.898c-.135-.25-.3-.388-.893-.388h-3.17c-.217 0-.39.174-.39.388v2.9c0 .213.173.387.39.387h5.42c.213 0 .39-.177.39-.39zm1.512 4.412c0-.2-.162-.362-.362-.362-.2 0-.362.163-.362.362v.687c0 .2.162.36.362.36.2 0 .362-.16.362-.36v-.69zM0 18.678h19.92V7.68H0v11z"/>
</svg>
